<?xml version="1.0" encoding="UTF-8" standalone="no"?>
<svg viewBox="0 0 300 300" xmlns="http://www.w3.org/2000/svg">
  <!-- Definitions for gradients -->
  <defs>
    <!-- Subtle background gradient -->
    <linearGradient id="bg-gradient" x1="0%" y1="0%" x2="100%" y2="100%">
      <stop offset="0%" stop-color="#ffffff" />
      <stop offset="100%" stop-color="#f8f9fa" />
    </linearGradient>
    
    <!-- Light refraction effect inside prism -->
    <linearGradient id="prism-fill" x1="0%" y1="0%" x2="0%" y2="100%">
      <stop offset="0%" stop-color="#ffffff" stop-opacity="0.9" />
      <stop offset="100%" stop-color="#f8f9fa" stop-opacity="0.6" />
    </linearGradient>
  </defs>
  
  <!-- Clean white background -->
  <circle cx="150" cy="150" r="140" fill="url(#bg-gradient)" />
  
  <!-- Minimalist prism shape -->
  <polygon 
    points="150,70 220,180 80,180" 
    fill="url(#prism-fill)" 
    stroke="#333333" 
    stroke-width="2.5"
    stroke-linejoin="round" />
  
  <!-- Simple light beam entering prism -->
  <line x1="150" y1="40" x2="150" y2="70" stroke="#333333" stroke-width="2.5" stroke-linecap="round" />
  
  <!-- Minimalist color spectrum exiting prism -->
  <path d="M80,180 L50,210" stroke="#ff006e" stroke-width="2.5" stroke-linecap="round" />
  <path d="M110,180 L95,210" stroke="#fb5607" stroke-width="2.5" stroke-linecap="round" />
  <path d="M150,180 L150,210" stroke="#ffbe0b" stroke-width="2.5" stroke-linecap="round" />
  <path d="M190,180 L205,210" stroke="#3a86ff" stroke-width="2.5" stroke-linecap="round" />
  <path d="M220,180 L250,210" stroke="#8338ec" stroke-width="2.5" stroke-linecap="round" />
  
  <!-- Subtle prismatic reflection effect at top of prism -->
  <path d="M150,70 L145,80 L155,80 Z" fill="#ff006e" fill-opacity="0.5" />
  <path d="M155,80 L160,90 L150,90 Z" fill="#fb5607" fill-opacity="0.5" />
  <path d="M145,80 L140,90 L150,90 Z" fill="#3a86ff" fill-opacity="0.5" />
  
  <!-- Minimal circular enclosure -->
  <circle cx="150" cy="150" r="120" fill="none" stroke="#333333" stroke-width="1.5" stroke-opacity="0.4" />
</svg>